<svg width="14" height="17" viewBox="0 0 14 17" fill="none" xmlns="http://www.w3.org/2000/svg">
<path d="M6.99998 16.3333C7.91665 16.3333 8.66665 15.5833 8.66665 14.6666H5.33331C5.33331 15.1086 5.50891 15.5325 5.82147 15.8451C6.13403 16.1577 6.55795 16.3333 6.99998 16.3333ZM12 11.3333V7.16658C12 4.60825 10.6333 2.46659 8.24998 1.89992V1.33325C8.24998 0.641585 7.69165 0.083252 6.99998 0.083252C6.30831 0.083252 5.74998 0.641585 5.74998 1.33325V1.89992C3.35831 2.46659 1.99998 4.59992 1.99998 7.16658V11.3333L0.333313 12.9999V13.8333H13.6666V12.9999L12 11.3333Z" fill="#2C2E3D"/>
</svg>
