<svg width="16" height="16" viewBox="0 0 16 16" fill="none" xmlns="http://www.w3.org/2000/svg">
<path d="M13.95 8.78003C13.98 8.53003 14 8.27003 14 8.00003C14 7.73003 13.98 7.47003 13.94 7.22003L15.63 5.90003C15.7025 5.83929 15.752 5.75552 15.7702 5.66271C15.7884 5.56989 15.7742 5.47365 15.73 5.39003L14.13 2.62003C14.03 2.44003 13.82 2.38003 13.64 2.44003L11.65 3.24003C11.2368 2.92104 10.7828 2.65872 10.3 2.46003L10 0.340026C9.98555 0.244644 9.9371 0.157704 9.86359 0.0952241C9.79009 0.0327443 9.69648 -0.00106497 9.60001 2.55818e-05H6.40001C6.30464 -0.000942311 6.21223 0.0331502 6.14033 0.0958289C6.06843 0.158508 6.02206 0.245407 6.01001 0.340026L5.71001 2.46003C5.22808 2.66036 4.77427 2.92257 4.36001 3.24003L2.37001 2.44003C2.2804 2.40548 2.18129 2.40469 2.09114 2.43781C2.00099 2.47092 1.92595 2.53569 1.88001 2.62003L0.280014 5.39003C0.230531 5.47232 0.213364 5.57005 0.23184 5.66428C0.250316 5.7585 0.303119 5.84251 0.380014 5.90003L2.07001 7.22003C2.03001 7.47003 2.00001 7.74003 2.00001 8.00003C2.00001 8.26003 2.02001 8.53003 2.06001 8.78003L0.370014 10.1C0.29751 10.1608 0.24803 10.2445 0.229831 10.3373C0.211632 10.4302 0.225816 10.5264 0.270014 10.61L1.87001 13.38C1.97001 13.56 2.18001 13.62 2.36001 13.56L4.35001 12.76C4.76325 13.079 5.21727 13.3413 5.70001 13.54L6.00001 15.66C6.04001 15.86 6.20001 16 6.40001 16H9.60001C9.80001 16 9.97001 15.86 9.99001 15.66L10.29 13.54C10.7719 13.3397 11.2258 13.0775 11.64 12.76L13.63 13.56C13.81 13.63 14.02 13.56 14.12 13.38L15.72 10.61C15.7695 10.5277 15.7867 10.43 15.7682 10.3358C15.7497 10.2415 15.6969 10.1575 15.62 10.1L13.95 8.78003ZM8.00001 11C6.35001 11 5.00001 9.65003 5.00001 8.00003C5.00001 6.35003 6.35001 5.00003 8.00001 5.00003C9.65001 5.00003 11 6.35003 11 8.00003C11 9.65003 9.65001 11 8.00001 11Z" fill="#2C2E3D"/>
</svg>
