<svg width="61" height="60" viewBox="0 0 61 60" fill="none" xmlns="http://www.w3.org/2000/svg">
<path d="M58.47 8.18996L45 0.509957C44.5439 0.246652 44.0266 0.108032 43.5 0.108032C42.9734 0.108032 42.4561 0.246652 42 0.509957L30 7.34996L18 0.509957C17.5439 0.246652 17.0266 0.108032 16.5 0.108032C15.9734 0.108032 15.4561 0.246652 15 0.509957L1.53 8.18996C1.0666 8.45043 0.680737 8.82937 0.411901 9.28797C0.143066 9.74657 0.000916071 10.2684 0 10.8V26.16C0.000916071 26.6915 0.143066 27.2133 0.411901 27.6719C0.680737 28.1305 1.0666 28.5095 1.53 28.77L13.53 35.58V49.2C13.5309 49.7315 13.6731 50.2533 13.9419 50.7119C14.2107 51.1705 14.5966 51.5495 15.06 51.81L28.56 59.49C29.0161 59.7533 29.5334 59.8919 30.06 59.8919C30.5866 59.8919 31.1039 59.7533 31.56 59.49L45 51.81C45.4634 51.5495 45.8493 51.1705 46.1181 50.7119C46.3869 50.2533 46.5291 49.7315 46.53 49.2V35.58L58.53 28.77C58.9934 28.5095 59.3793 28.1305 59.6481 27.6719C59.9169 27.2133 60.0591 26.6915 60.06 26.16V10.8C60.0532 10.2624 59.902 9.73646 59.6223 9.27731C59.3426 8.81815 58.9446 8.44261 58.47 8.18996ZM6 24.42V12.42L16.5 6.41996L27 12.42V24.42L16.5 30.42L6 24.42ZM40.5 47.46L30 53.46L19.5 47.46V35.46L30 29.46L40.5 35.46V47.46ZM54 24.42L43.5 30.42L33 24.42V12.42L43.5 6.41996L54 12.42V24.42Z" fill="url(#paint0_linear)"/>
<defs>
<linearGradient id="paint0_linear" x1="5.5" y1="3.13891e-07" x2="53.5" y2="60" gradientUnits="userSpaceOnUse">
<stop stop-color="#FF002E"/>
<stop offset="1" stop-color="#EB00FF"/>
</linearGradient>
</defs>
</svg>
