<svg width="208" height="40" viewBox="0 0 208 40" fill="none" xmlns="http://www.w3.org/2000/svg">
<path d="M47.6872 10.592V29H41.9152V10.592H47.6872ZM58.9641 10.592C60.8881 10.592 62.5695 10.982 64.0081 11.762C65.4641 12.542 66.5821 13.6253 67.3621 15.012C68.1421 16.3987 68.5321 17.976 68.5321 19.744C68.5321 21.4947 68.1421 23.072 67.3621 24.476C66.5821 25.88 65.4641 26.9893 64.0081 27.804C62.5695 28.6013 60.8881 29 58.9641 29H51.2941V10.592H58.9641ZM58.4441 23.852C59.7441 23.852 60.7755 23.4967 61.5381 22.786C62.3008 22.0753 62.6821 21.0613 62.6821 19.744C62.6821 18.4267 62.3008 17.4127 61.5381 16.702C60.7755 15.9913 59.7441 15.636 58.4441 15.636H57.0661V23.852H58.4441ZM77.3884 15.194V17.456H83.1084V21.798H77.3884V24.398H83.8884V29H71.6164V10.592H83.8884V15.194H77.3884ZM104.718 29H98.9457L92.8357 19.744V29H87.0637V10.592H92.8357L98.9457 20.004V10.592H104.718V29ZM122.781 10.592V15.168H117.893V29H112.121V15.168H107.285V10.592H122.781ZM128.415 27.076H134.759V29H126.049V10.878H128.415V27.076ZM146.488 29.182C144.806 29.182 143.272 28.792 141.886 28.012C140.499 27.2147 139.398 26.114 138.584 24.71C137.786 23.2887 137.388 21.694 137.388 19.926C137.388 18.158 137.786 16.572 138.584 15.168C139.398 13.7467 140.499 12.646 141.886 11.866C143.272 11.0687 144.806 10.67 146.488 10.67C148.186 10.67 149.729 11.0687 151.116 11.866C152.502 12.646 153.594 13.738 154.392 15.142C155.189 16.546 155.588 18.1407 155.588 19.926C155.588 21.7113 155.189 23.306 154.392 24.71C153.594 26.114 152.502 27.2147 151.116 28.012C149.729 28.792 148.186 29.182 146.488 29.182ZM146.488 27.128C147.753 27.128 148.888 26.8333 149.894 26.244C150.916 25.6547 151.714 24.814 152.286 23.722C152.875 22.63 153.17 21.3647 153.17 19.926C153.17 18.47 152.875 17.2047 152.286 16.13C151.714 15.038 150.925 14.1973 149.92 13.608C148.914 13.0187 147.77 12.724 146.488 12.724C145.205 12.724 144.061 13.0187 143.056 13.608C142.05 14.1973 141.253 15.038 140.664 16.13C140.092 17.2047 139.806 18.47 139.806 19.926C139.806 21.3647 140.092 22.63 140.664 23.722C141.253 24.814 142.05 25.6547 143.056 26.244C144.078 26.8333 145.222 27.128 146.488 27.128ZM173.439 16.13C172.936 15.0727 172.208 14.258 171.255 13.686C170.302 13.0967 169.192 12.802 167.927 12.802C166.662 12.802 165.518 13.0967 164.495 13.686C163.49 14.258 162.692 15.09 162.103 16.182C161.531 17.2567 161.245 18.5047 161.245 19.926C161.245 21.3473 161.531 22.5953 162.103 23.67C162.692 24.7447 163.49 25.5767 164.495 26.166C165.518 26.738 166.662 27.024 167.927 27.024C169.695 27.024 171.151 26.4953 172.295 25.438C173.439 24.3807 174.106 22.9507 174.297 21.148H167.069V19.224H176.819V21.044C176.68 22.5347 176.212 23.904 175.415 25.152C174.618 26.3827 173.569 27.362 172.269 28.09C170.969 28.8007 169.522 29.156 167.927 29.156C166.246 29.156 164.712 28.766 163.325 27.986C161.938 27.1887 160.838 26.088 160.023 24.684C159.226 23.28 158.827 21.694 158.827 19.926C158.827 18.158 159.226 16.572 160.023 15.168C160.838 13.7467 161.938 12.646 163.325 11.866C164.712 11.0687 166.246 10.67 167.927 10.67C169.851 10.67 171.55 11.1467 173.023 12.1C174.514 13.0533 175.597 14.3967 176.273 16.13H173.439ZM189.163 29.182C187.482 29.182 185.948 28.792 184.561 28.012C183.175 27.2147 182.074 26.114 181.259 24.71C180.462 23.2887 180.063 21.694 180.063 19.926C180.063 18.158 180.462 16.572 181.259 15.168C182.074 13.7467 183.175 12.646 184.561 11.866C185.948 11.0687 187.482 10.67 189.163 10.67C190.862 10.67 192.405 11.0687 193.791 11.866C195.178 12.646 196.27 13.738 197.067 15.142C197.865 16.546 198.263 18.1407 198.263 19.926C198.263 21.7113 197.865 23.306 197.067 24.71C196.27 26.114 195.178 27.2147 193.791 28.012C192.405 28.792 190.862 29.182 189.163 29.182ZM189.163 27.128C190.429 27.128 191.564 26.8333 192.569 26.244C193.592 25.6547 194.389 24.814 194.961 23.722C195.551 22.63 195.845 21.3647 195.845 19.926C195.845 18.47 195.551 17.2047 194.961 16.13C194.389 15.038 193.601 14.1973 192.595 13.608C191.59 13.0187 190.446 12.724 189.163 12.724C187.881 12.724 186.737 13.0187 185.731 13.608C184.726 14.1973 183.929 15.038 183.339 16.13C182.767 17.2047 182.481 18.47 182.481 19.926C182.481 21.3647 182.767 22.63 183.339 23.722C183.929 24.814 184.726 25.6547 185.731 26.244C186.754 26.8333 187.898 27.128 189.163 27.128Z" fill="white"/>
<path d="M13.552 21.4761L15.9747 22.8747L18.468 21.4347V18.6801L15.9467 17.2267L13.552 18.7227V21.4761ZM10.8854 19.9361V10.6374C8.40844 11.9933 6.56837 14.2739 5.76669 16.9814L10.8867 19.9361H10.8854ZM5.33469 19.8107L5.33335 20.0001C5.32942 22.7283 6.37492 25.3535 8.25335 27.3321L13.3067 24.4134L5.33469 19.8107ZM13.552 15.5787L21.296 10.7387C19.684 9.81501 17.8579 9.33043 16 9.33341C15.1574 9.33341 14.3387 9.43075 13.552 9.61608V15.5787ZM23.556 12.4721L18.508 15.6254L26.6614 20.3334C26.7088 18.8802 26.4578 17.4326 25.9236 16.0802C25.3895 14.7278 24.5837 13.5007 23.556 12.4721ZM21.1347 20.2214V29.3521C23.5622 28.0164 25.3767 25.7909 26.196 23.1441L21.1347 20.2214ZM10.4774 29.1281C12.1423 30.1377 14.0529 30.67 16 30.6667C16.8494 30.6667 17.676 30.5681 18.4667 30.3801V24.5134L10.4774 29.1267V29.1281ZM16 33.3334C8.63602 33.3334 2.66669 27.3641 2.66669 20.0001C2.66669 12.6361 8.63602 6.66675 16 6.66675C23.364 6.66675 29.3334 12.6361 29.3334 20.0001C29.3334 27.3641 23.364 33.3334 16 33.3334Z" fill="white"/>
</svg>
