<svg width="20" height="20" viewBox="0 0 20 20" fill="none" xmlns="http://www.w3.org/2000/svg">
<path d="M0 1C0 0.447715 0.447715 0 1 0H4C4.55228 0 5 0.447715 5 1V4C5 4.55228 4.55228 5 4 5H1C0.447715 5 0 4.55228 0 4V1Z" fill="#2C2E3D"/>
<path d="M8 1C8 0.447715 8.44772 0 9 0H12C12.5523 0 13 0.447715 13 1V4C13 4.55228 12.5523 5 12 5H9C8.44772 5 8 4.55228 8 4V1Z" fill="#2C2E3D"/>
<path d="M15 1C15 0.447715 15.4477 0 16 0H19C19.5523 0 20 0.447715 20 1V4C20 4.55228 19.5523 5 19 5H16C15.4477 5 15 4.55228 15 4V1Z" fill="#2C2E3D"/>
<path d="M0 9C0 8.44772 0.447715 8 1 8H4C4.55228 8 5 8.44772 5 9V11C5 11.5523 4.55228 12 4 12H1C0.447715 12 0 11.5523 0 11V9Z" fill="#2C2E3D"/>
<path d="M8 9C8 8.44772 8.44772 8 9 8H12C12.5523 8 13 8.44772 13 9V11C13 11.5523 12.5523 12 12 12H9C8.44772 12 8 11.5523 8 11V9Z" fill="#2C2E3D"/>
<path d="M15 9C15 8.44772 15.4477 8 16 8H19C19.5523 8 20 8.44772 20 9V11C20 11.5523 19.5523 12 19 12H16C15.4477 12 15 11.5523 15 11V9Z" fill="#2C2E3D"/>
<path d="M0 16C0 15.4477 0.447715 15 1 15H4C4.55228 15 5 15.4477 5 16V19C5 19.5523 4.55228 20 4 20H1C0.447715 20 0 19.5523 0 19V16Z" fill="#2C2E3D"/>
<path d="M8 16C8 15.4477 8.44772 15 9 15H12C12.5523 15 13 15.4477 13 16V19C13 19.5523 12.5523 20 12 20H9C8.44772 20 8 19.5523 8 19V16Z" fill="#2C2E3D"/>
<path d="M15 16C15 15.4477 15.4477 15 16 15H19C19.5523 15 20 15.4477 20 16V19C20 19.5523 19.5523 20 19 20H16C15.4477 20 15 19.5523 15 19V16Z" fill="#2C2E3D"/>
</svg>
